<svg width="1895" height="750" viewBox="0 0 1895 750" fill="none" xmlns="http://www.w3.org/2000/svg">
<path d="M593.028 607V183.579H671.332V607H593.028ZM855.11 614.54C772.166 614.54 706.043 544.357 706.043 457.353C706.043 370.348 772.166 299.005 855.11 299.005C907.313 299.005 934.574 320.466 950.815 352.948V305.385H1028.54V607H952.555V557.698C936.314 591.919 909.053 614.54 855.11 614.54ZM784.347 456.773C784.347 502.595 817.989 543.777 867.871 543.777C919.494 543.777 952.555 504.335 952.555 457.353C952.555 410.37 919.494 369.768 867.871 369.768C817.989 369.768 784.347 409.79 784.347 456.773ZM1059.98 607V598.3L1192.23 388.909C1196.29 382.529 1200.93 376.729 1206.15 370.348H1066.36V305.385H1326.22V314.086L1192.81 526.956C1189.91 532.176 1185.85 536.817 1181.79 542.037H1323.32V607H1059.98ZM1480.62 614.54C1387.23 614.54 1324.59 543.777 1324.59 456.773C1324.59 369.768 1390.13 297.845 1480.62 297.845C1571.1 297.845 1633.74 369.768 1633.74 456.773C1633.74 465.473 1633.16 474.754 1631.42 484.614H1405.79C1414.49 519.996 1441.17 544.937 1480.62 544.937C1514.26 544.937 1540.36 527.536 1554.28 504.335L1615.18 550.157C1590.82 587.859 1540.36 614.54 1480.62 614.54ZM1405.79 426.031H1554.86C1546.16 392.389 1517.74 365.128 1479.46 365.128C1442.33 365.128 1414.49 390.069 1405.79 426.031ZM1668.12 607V305.385H1744.1V362.808C1754.54 319.306 1785.29 295.525 1837.49 298.425V372.088H1826.47C1781.23 372.088 1746.42 402.25 1746.42 452.712V607H1668.12Z" fill="white"/>
<path d="M481.273 607.468H54L189.952 184.623H339.496L481.273 607.468Z" fill="url(#paint0_linear_164_3398)"/>
<defs>
<linearGradient id="paint0_linear_164_3398" x1="181.742" y1="159.625" x2="548.346" y2="607.927" gradientUnits="userSpaceOnUse">
<stop stop-color="#FF00C5"/>
<stop offset="0.269783" stop-color="#D720FB"/>
<stop offset="0.599799" stop-color="#EC4042"/>
<stop offset="1" stop-color="#FF00C5"/>
</linearGradient>
</defs>
</svg>
